<svg width="256" height="256" viewBox="0 0 256 256" fill="none" xmlns="http://www.w3.org/2000/svg">
  <defs>
    <linearGradient id="g" x1="0" y1="0" x2="1" y2="1">
      <stop offset="0%" stop-color="#5A9BC3"/>
      <stop offset="100%" stop-color="#4a90e2"/>
    </linearGradient>
    <filter id="s" x="-20%" y="-20%" width="140%" height="140%">
      <feDropShadow dx="0" dy="6" stdDeviation="10" flood-color="#0f172a" flood-opacity="0.25"/>
    </filter>
  </defs>
  <rect x="16" y="16" width="224" height="224" rx="48" fill="url(#g)"/>
  <g filter="url(#s)">
    <path d="M128 196c-2.8 0-5.6-1-7.8-3.1l-56.7-52.8C46.7 123.6 44 112.8 46.9 102.6 51.6 86.3 67 76 83.9 76c12 0 23 5.4 30.1 14.3 7.1-8.9 18.1-14.3 30.1-14.3 16.9 0 32.3 10.3 37 26.6 2.9 10.2 0.2 21-16.6 37.5l-56.7 52.8c-2.2 2.1-5 3.1-7.8 3.1z" fill="#fff"/>
    <polyline points="60,130 90,130 105,100 130,170 150,140 196,140" fill="none" stroke="#4a90e2" stroke-width="10" stroke-linecap="round" stroke-linejoin="round"/>
  </g>
</svg>



